<?xml version="1.0" encoding="utf-8"?>
<svg id="Layer_1" x="0px" y="0px" width="220.875px" height="29.562px" viewBox="0 0 220.875 29.562" xmlns="http://www.w3.org/2000/svg" xmlns:bx="https://boxy-svg.com">
  <defs>
    <style id="bx-google-fonts">@import url(https://fonts.googleapis.com/css?family=Roboto:100,300,500,700,900,100italic,300italic,400,400italic,500italic,700italic,900italic);</style>
  </defs>
  <g>
    <g transform="matrix(1, 0, 0, 1, 5.773433, -41.765388)">
      <text x="29.324" y="68.165" transform="matrix(1.078507, 0, 0, 1, 8.69876, 0)" style="fill: rgb(53, 14, 82); font-size: 30px; font-weight: bold; white-space: pre;" bx:origin="0.544 0.492">은평구철거</text>
    </g>
    <path d="M 351.5 284.453 L 353.964 290.572 L 361.469 290.704 L 355.488 294.618 L 357.661 300.819 L 351.5 297.119 L 345.339 300.819 L 347.512 294.618 L 341.531 290.704 L 349.036 290.572 Z" transform="matrix(1, 0, 0, 0.999999, -326.789027, -276.277441)" style="fill: rgb(53, 14, 82);" bx:shape="star 351.5 293.5 10.482 9.047 0.4 5 1@a300e873"/>
    <path d="M 348.5 289.99 L 348.939 291.35 L 350.276 291.379 L 349.21 292.248 L 349.597 293.626 L 348.5 292.804 L 347.403 293.626 L 347.79 292.248 L 346.724 291.379 L 348.061 291.35 Z" transform="matrix(1.000007, 0, 0, 0.999996, -324.653158, -275.207552)" style="fill: rgb(53, 14, 82);" bx:shape="star 348.5 292 1.867 2.01 0.4 5 1@1101b96d"/>
    <path d="M 364 289.208 L 364.338 290.082 L 365.366 290.101 L 364.546 290.66 L 364.844 291.545 L 364 291.017 L 363.156 291.545 L 363.454 290.66 L 362.634 290.101 L 363.662 290.082 Z" style="fill: rgb(216, 216, 216);" transform="matrix(1.000009, 0, 0, 1.000003, -335.702586, -274.140306)" bx:shape="star 364 290.5 1.436 1.292 0.4 5 1@92d20883"/>
    <path d="M 333.5 267.059 L 333.871 268.71 L 335.003 268.746 L 334.101 269.802 L 334.429 271.475 L 333.5 270.476 L 332.571 271.475 L 332.899 269.802 L 331.997 268.746 L 333.129 268.71 Z" transform="matrix(0.999995, 0, 0, 0.999998, -313.956923, -259.169833)" style="fill: rgb(53, 14, 82);" bx:shape="star 333.5 269.5 1.58 2.441 0.4 5 1@653f4e4d"/>
    <path d="M 324.5 310.277 L 324.804 311.442 L 325.729 311.468 L 324.992 312.213 L 325.259 313.394 L 324.5 312.689 L 323.741 313.394 L 324.008 312.213 L 323.271 311.468 L 324.196 311.442 Z" transform="matrix(1.000001, 0, 0, 1.000002, -307.543736, -289.465527)" style="fill: rgb(53, 14, 82);" bx:shape="star 324.5 312 1.292 1.723 0.4 5 1@0ea36621"/>
    <path d="M 393.5 312.564 L 393.871 313.535 L 395.003 313.556 L 394.101 314.177 L 394.429 315.162 L 393.5 314.574 L 392.571 315.162 L 392.899 314.177 L 391.997 313.556 L 393.129 313.535 Z" transform="matrix(0.999995, 0, 0, 1.000009, -356.725158, -290.893373)" style="fill: rgb(53, 14, 82);" bx:shape="star 393.5 314 1.58 1.436 0.4 5 1@c56a5114"/>
    <path d="M 378 272.208 L 378.473 273.082 L 379.912 273.101 L 378.765 273.66 L 379.181 274.545 L 378 274.017 L 376.819 274.545 L 377.235 273.66 L 376.088 273.101 L 377.527 273.082 Z" transform="matrix(0.999996, 0, 0, 1.000001, -345.677089, -262.022103)" style="fill: rgb(53, 14, 82);" bx:shape="star 378 273.5 2.01 1.292 0.4 5 1@15e41337"/>
  </g>
</svg>